<?xml version="1.0" encoding="UTF-8" ?>
<svg xmlns="http://www.w3.org/2000/svg" height="216" width="216">
    <defs>
        <!-- top triangles -->
        <linearGradient id="gradient-top-left" x1="1" y1="1" x2="0" y="0">
            <stop offset="0%" stop-color="#555" />
            <stop offset="50%" stop-color="#999" />
        </linearGradient>
        <linearGradient id="gradient-top-right" x1="0" y1="1" x2="1" y2="0">
            <stop offset="0%" stop-color="#555" />
            <stop offset="50%" stop-color="#999" />
        </linearGradient>
        <linearGradient id="gradient-top-middle" x1="1" y1="1" x2="1" y2="0">
            <stop offset="0%" stop-color="#333" />
            <stop offset="100%" stop-color="#555" />
        </linearGradient>

        <!-- middle triangles -->
        <linearGradient id="gradient-middle-triangle" x1="0" y1="1" x2="0" y2="0">
            <stop offset="0%" stop-color="#333" />
            <stop offset="100%" stop-color="#666" />
        </linearGradient>

        <!-- middle kite -->
        <linearGradient id="gradient-middle-kite" x1="0" y1="1" x2="0" y2="0">
            <stop offset="0%" stop-color="#222" />
            <stop offset="100%" stop-color="#333" />
        </linearGradient>
    </defs>
    <g stroke="#000" stroke-width="0.25" y="0">
        <!-- left triangle in top-left trapezoid -->
        <path d="M0 36 L27 0 L54 36 H0" fill="url(#gradient-top-left)" />
        <!-- middle triangle in top-left trapezoid -->
        <path d="M54 36 L27 0 H81 L54 36" fill="url(#gradient-top-middle)" />
        <!-- right triangle in top-left trapezoid -->
        <path d="M54 36 L81 0 L108 36 H54" fill="url(#gradient-top-right)" />

        <!-- left triangle in top-right trapezoid -->
        <path d="M108 36 L135 0 L162 36 H108" fill="url(#gradient-top-left)" />
        <!-- middle triangle in top-right trapezoid -->
        <path d="M162 36 L135 0 H189 L162 36" fill="url(#gradient-top-middle)" />
        <!-- right triangle in top-right trapezoid -->
        <path d="M162 36 L189 0 L216 36 H162" fill="url(#gradient-top-right)" />

        <!-- middle left triangle -->
        <path d="M0 36 L54 126 L108 36 H0" fill="url(#gradient-middle-triangle)" />
        <!-- middle right triangle -->
        <path d="M108 36 L162 126 L216 36 H108" fill="url(#gradient-middle-triangle)" />

        <!-- middle kite -->
        <path d="M108 36 L54 126 L108 216 L162 126 L108 36" fill="url(#gradient-middle-kite)"/>
    </g>
</svg>