<?xml version="1.0" encoding="UTF-8" ?>
<svg xmlns="http://www.w3.org/2000/svg" height="216" width="216">
    <g stroke="#555" stroke-width="4" fill="#161616" y="0">
        <!-- left triangle in top-left trapezoid -->
        <path d="M0 36 L27 0 L54 36 H0" />
        <!-- middle triangle in top-left trapezoid -->
        <path d="M54 36 L27 0 H81 L54 36" />
        <!-- right triangle in top-left trapezoid -->
        <path d="M54 36 L81 0 L108 36 H54" />

        <!-- left triangle in top-right trapezoid -->
        <path d="M108 36 L135 0 L162 36 H108" />
        <!-- middle triangle in top-right trapezoid -->
        <path d="M162 36 L135 0 H189 L162 36" />
        <!-- right triangle in top-right trapezoid -->
        <path d="M162 36 L189 0 L216 36 H162" />

        <!-- middle left triangle -->
        <path d="M0 36 L54 126 L108 36 H0" />
        <!-- middle right triangle -->
        <path d="M108 36 L162 126 L216 36 H108" />

        <!-- middle kite -->
        <path d="M108 36 L54 126 L108 216 L162 126 L108 36" />
    </g>
</svg>